<svg width="200" height="63" viewBox="0 0 200 63" fill="none" xmlns="http://www.w3.org/2000/svg">
<path d="M56.2711 20.1818C55.8304 21.0341 55.2244 21.723 54.4533 22.2486C53.6821 22.7741 52.6669 23.0369 51.4078 23.0369C50.7783 23.0369 50.1094 22.9304 49.4012 22.7173C48.7087 22.4901 48.0634 22.0781 47.4653 21.4815C46.8673 20.8849 46.3715 20.0682 45.978 19.0312C45.5846 17.9943 45.3878 16.6662 45.3878 15.0469C45.3878 13.456 45.5767 12.142 45.9544 11.1051C46.3322 10.0682 46.8122 9.25142 47.3945 8.65483C47.9926 8.05824 48.6457 7.64631 49.354 7.41903C50.0622 7.17756 50.7547 7.05682 51.4314 7.05682C52.0452 7.05682 52.5961 7.12784 53.084 7.26989C53.5876 7.41193 54.0283 7.60369 54.406 7.84517C54.7838 8.07244 55.1064 8.34233 55.374 8.65483C55.6573 8.96733 55.8855 9.29403 56.0586 9.63494L54.288 10.2528C54.0362 9.67045 53.6821 9.23011 53.2256 8.93182C52.785 8.63352 52.1869 8.48437 51.4314 8.48437C50.8963 8.48437 50.3848 8.59091 49.8969 8.80398C49.4248 9.00284 49.0077 9.35795 48.6457 9.86932C48.2837 10.3665 47.9926 11.0341 47.7722 11.8722C47.5676 12.7102 47.4653 13.7685 47.4653 15.0469C47.4653 16.3111 47.5755 17.3622 47.7958 18.2003C48.0162 19.0384 48.3073 19.706 48.6693 20.2031C49.0471 20.7003 49.472 21.0554 49.9442 21.2685C50.432 21.4815 50.9357 21.5881 51.4551 21.5881C52.3207 21.5881 52.9817 21.3963 53.4381 21.0128C53.8945 20.6151 54.2644 20.1179 54.5477 19.5213L56.2711 20.1818Z" fill="white"/>
<path d="M59.1283 16.7514C59.1283 15.6435 59.2936 14.6918 59.6241 13.8963C59.9546 13.1009 60.3953 12.4474 60.9461 11.9361C61.497 11.4247 62.1265 11.0554 62.8348 10.8281C63.5587 10.5866 64.2985 10.4659 65.0539 10.4659C65.8093 10.4659 66.5412 10.5866 67.2494 10.8281C67.9734 11.0554 68.6108 11.4247 69.1617 11.9361C69.7125 12.4474 70.1532 13.1009 70.4837 13.8963C70.8142 14.6918 70.9795 15.6435 70.9795 16.7514C70.9795 17.8594 70.8142 18.8111 70.4837 19.6065C70.1532 20.402 69.7046 21.0554 69.1381 21.5668C68.5872 22.0781 67.9577 22.4545 67.2494 22.696C66.5412 22.9233 65.8093 23.0369 65.0539 23.0369C64.2985 23.0369 63.5666 22.9233 62.8584 22.696C62.1501 22.4545 61.5127 22.0781 60.9461 21.5668C60.3953 21.0554 59.9546 20.402 59.6241 19.6065C59.2936 18.8111 59.1283 17.8594 59.1283 16.7514ZM61.1114 16.7514C61.1114 18.3707 61.4576 19.5923 62.1501 20.4162C62.8584 21.2259 63.8263 21.6307 65.0539 21.6307C66.2815 21.6307 67.2416 21.2259 67.9341 20.4162C68.6423 19.5923 68.9964 18.3707 68.9964 16.7514C68.9964 15.1321 68.6423 13.9105 67.9341 13.0866C67.2416 12.2628 66.2815 11.8509 65.0539 11.8509C63.8263 11.8509 62.8584 12.2628 62.1501 13.0866C61.4576 13.8963 61.1114 15.1179 61.1114 16.7514Z" fill="white"/>
<path d="M80.2007 22.7173L76.5651 13.3423V22.7173H74.7473V10.7855H77.4622L81.2631 20.7571L84.757 10.7855H87.4719V22.7173H85.5833V13.3423L82.231 22.7173H80.2007Z" fill="white"/>
<path d="M97.1688 22.7173L93.5332 13.3423V22.7173H91.7154V10.7855H94.4303L98.2312 20.7571L101.725 10.7855H104.44V22.7173H102.551V13.3423L99.1991 22.7173H97.1688Z" fill="white"/>
<path d="M108.211 16.7514C108.211 15.6435 108.377 14.6918 108.707 13.8963C109.038 13.1009 109.478 12.4474 110.029 11.9361C110.58 11.4247 111.21 11.0554 111.918 10.8281C112.642 10.5866 113.382 10.4659 114.137 10.4659C114.892 10.4659 115.624 10.5866 116.333 10.8281C117.056 11.0554 117.694 11.4247 118.245 11.9361C118.796 12.4474 119.236 13.1009 119.567 13.8963C119.897 14.6918 120.063 15.6435 120.063 16.7514C120.063 17.8594 119.897 18.8111 119.567 19.6065C119.236 20.402 118.788 21.0554 118.221 21.5668C117.67 22.0781 117.041 22.4545 116.333 22.696C115.624 22.9233 114.892 23.0369 114.137 23.0369C113.382 23.0369 112.65 22.9233 111.941 22.696C111.233 22.4545 110.596 22.0781 110.029 21.5668C109.478 21.0554 109.038 20.402 108.707 19.6065C108.377 18.8111 108.211 17.8594 108.211 16.7514ZM110.194 16.7514C110.194 18.3707 110.541 19.5923 111.233 20.4162C111.941 21.2259 112.909 21.6307 114.137 21.6307C115.365 21.6307 116.325 21.2259 117.017 20.4162C117.725 19.5923 118.079 18.3707 118.079 16.7514C118.079 15.1321 117.725 13.9105 117.017 13.0866C116.325 12.2628 115.365 11.8509 114.137 11.8509C112.909 11.8509 111.941 12.2628 111.233 13.0866C110.541 13.8963 110.194 15.1179 110.194 16.7514Z" fill="white"/>
<path d="M133.274 10.7855V22.7173H130.535L125.648 12.7457V22.7173H123.83V10.7855H126.616L131.503 20.6506V10.7855H133.274Z" fill="white"/>
<path d="M23.9334 63C17.5215 63 12.2003 61.8665 7.96974 59.5994C2.68158 56.8551 0.0375061 52.8281 0.0375061 47.5185C0.0375061 42.3878 2.18582 38.152 6.48244 34.8111C10.713 31.5298 15.6376 29.8892 21.2562 29.8892C24.363 29.8892 25.9164 30.1278 25.9164 30.6051C25.9164 30.7244 24.7596 30.7841 22.4461 30.7841C17.224 30.7841 12.663 32.2159 8.76296 35.0795C4.59854 38.0028 2.51633 41.9702 2.51633 46.9815C2.51633 51.8139 4.43328 55.6023 8.2672 58.3466C11.9689 61.0312 16.4638 62.3736 21.752 62.3736C26.6435 62.3736 31.9978 61.2997 37.8148 59.152C47.6639 55.5724 52.5885 49.9943 52.5885 42.4176C52.5885 40.2699 52.0267 38.2415 50.9029 36.3324C49.7792 34.3636 48.0606 32.6335 45.747 31.142C43.6978 29.7699 41.6156 28.5469 39.5004 27.473C37.4512 26.3395 35.369 25.1165 33.2537 23.804C31.0063 22.4318 29.3207 20.8807 28.1969 19.1506C27.0732 17.4205 26.5113 15.6307 26.5113 13.7812C26.5113 11.1562 27.602 8.76988 29.7834 6.62216C27.8003 6.80113 26.1147 7.66619 24.7266 9.21733C23.4045 10.8878 22.7435 12.6179 22.7435 14.4077C22.7435 16.3764 23.2723 18.2557 24.33 20.0455C25.3876 21.8352 27.0071 23.4759 29.1885 24.9673C31.1054 26.2798 33.0554 27.5625 35.0385 28.8153C37.0876 30.0085 39.1037 31.2017 41.0868 32.3949C45.3173 35.4972 47.4326 39.2258 47.4326 43.581C47.4326 47.7571 45.0529 51.6946 40.2936 55.3935C38.0461 57.1832 35.7325 58.4957 33.3529 59.331C30.9732 60.2259 28.6266 60.6733 26.313 60.6733C25.9825 60.6733 25.8173 60.5838 25.8173 60.4048C25.8173 60.0469 26.0486 59.8679 26.5113 59.8679C27.6351 59.7486 28.6266 59.5994 29.4859 59.4205C30.3452 59.2415 31.1054 59.0625 31.7664 58.8835C35.3359 57.571 38.4758 55.5724 41.186 52.8878C44.1605 49.8452 45.6478 46.7429 45.6478 43.581C45.6478 41.4929 45.119 39.5241 44.0614 37.6747C43.0699 35.8253 41.5165 34.1847 39.4012 32.7528C37.5504 31.4403 35.6334 30.2173 33.6503 29.0838C31.6673 27.9503 29.7173 26.7273 27.8003 25.4148C25.6189 23.983 23.9995 22.3423 22.9418 20.4929C21.9503 18.5838 21.4545 16.5852 21.4545 14.4972C21.4545 12.2898 22.2808 10.3509 23.9334 8.6804C24.7927 7.84517 25.7512 7.21875 26.8088 6.80113C27.8664 6.32386 29.0232 6.08522 30.2791 6.08522H30.3783C35.0715 2.02841 41.3182 0 49.1182 0C56.125 0 60.9174 1.46165 63.4954 4.38494C64.2886 5.27983 64.6852 6.23437 64.6852 7.24858C64.6852 9.21733 63.297 10.6491 60.5208 11.544C58.5377 12.2599 56.2572 12.6179 53.6792 12.6179C52.4233 12.6179 51.1012 12.5582 49.7131 12.4389C48.325 12.2599 46.8707 11.9915 45.3504 11.6335C43.5656 11.3352 42.0453 10.9474 40.7893 10.4702C39.5334 9.93324 38.4758 9.39631 37.6165 8.85937C37.4842 8.74006 37.4181 8.65057 37.4181 8.59091C37.4181 8.41193 37.5173 8.32244 37.7156 8.32244C37.8478 8.32244 37.947 8.35227 38.0131 8.41193C41.7148 10.5597 46.8377 11.6335 53.3818 11.6335C54.5055 11.6335 55.5301 11.544 56.4555 11.3651C57.3809 11.1861 58.2402 10.9773 59.0335 10.7386C61.2148 9.84375 62.3055 8.65057 62.3055 7.15909C62.3055 5.01136 60.5869 3.40057 57.1496 2.3267C54.5716 1.49147 51.8945 1.07386 49.1182 1.07386C40.9215 1.07386 35.2698 3.51988 32.163 8.41193C31.2376 9.90341 30.7749 11.4545 30.7749 13.0653C30.7749 16.7045 33.0224 19.8963 37.5173 22.6406C39.5665 23.8338 41.6156 25.027 43.6648 26.2202C45.78 27.4134 47.8622 28.6065 49.9114 29.7997C54.4063 33.1406 56.6538 37.2273 56.6538 42.0597C56.6538 48.6222 52.886 53.9318 45.3504 57.9886C38.9385 61.3295 31.7995 63 23.9334 63Z" fill="#383838"/>
<path d="M81.9169 36.6009C81.0575 36.6009 80.6279 36.1534 80.6279 35.2585C80.6279 34.9006 80.8262 34.0952 81.2228 32.8423C81.6855 31.5895 81.9169 30.5455 81.9169 29.7102C81.9169 27.0256 80.727 25.6832 78.3474 25.6832C77.1575 25.6832 75.6372 26.1009 73.7863 26.9361C72.0016 27.831 71.0431 28.2784 70.9109 28.2784C70.6465 28.2784 70.5143 28.1889 70.5143 28.0099C70.5143 27.1747 71.8033 26.3991 74.3812 25.6832C76.3643 25.0866 78.0499 24.7883 79.438 24.7883C83.0076 24.7883 84.7923 26.7273 84.7923 30.6051C84.7923 31.679 84.561 32.8423 84.0982 34.0952C83.5033 35.7656 82.7762 36.6009 81.9169 36.6009ZM66.6473 57.1832C62.0863 57.1832 59.8058 54.8565 59.8058 50.2031C59.8058 45.5497 61.4914 40.777 64.8626 35.8849C68.7626 30.3366 73.0923 27.5625 77.8516 27.5625C78.5787 27.5625 78.9423 27.6818 78.9423 27.9205C78.9423 28.0994 78.2813 28.5469 76.9592 29.2628C73.7202 31.0526 70.8448 33.767 68.3329 37.4062C65.6227 41.2841 64.2677 44.7741 64.2677 47.8764C64.2677 52.7088 66.2838 55.125 70.316 55.125C72.8279 55.125 75.6041 54.2301 78.6448 52.4403C79.9669 51.6648 81.1898 50.8594 82.3135 50.0241C83.5033 49.1293 84.561 48.1747 85.4864 47.1605C85.8169 46.8026 86.2135 46.3551 86.6762 45.8182C87.1389 45.2812 87.6347 44.625 88.1635 43.8494C88.7584 42.9545 89.2211 42.5071 89.5517 42.5071C89.5517 42.5071 89.6178 42.5668 89.75 42.6861C89.75 42.8651 89.4525 43.3722 88.8576 44.2074C87.7338 45.7585 86.3788 47.2798 84.7923 48.7713C83.2059 50.2031 81.355 51.5753 79.2397 52.8878C74.6126 55.7514 70.4151 57.1832 66.6473 57.1832Z" fill="#383838"/>
<path d="M98.2004 56.3778C93.5072 56.3778 91.1606 53.6335 91.1606 48.1449C91.1606 47.3097 91.1936 46.4148 91.2597 45.4602C91.3919 44.446 91.5902 43.3722 91.8546 42.2386C91.5902 42.0597 91.3258 41.821 91.0614 41.5227C90.797 41.1648 90.5326 40.7472 90.2682 40.2699C90.5326 40.3295 90.797 40.4489 91.0614 40.6278C91.3919 40.7472 91.7885 40.8665 92.2512 40.9858C92.9784 38.0028 94.9614 35.0497 98.2004 32.1264C101.704 28.9048 105.009 27.294 108.116 27.294C108.843 27.294 109.206 27.3835 109.206 27.5625C109.206 27.6818 108.744 27.9801 107.818 28.4574C105.372 29.6506 103.092 31.5 100.977 34.0057C98.7292 36.5114 97.1097 39.017 96.1182 41.5227C96.1843 41.5824 96.2174 41.6122 96.2174 41.6122C96.2174 41.6122 96.2504 41.642 96.3165 41.7017C99.4894 41.7017 102.794 40.3295 106.232 37.5852C109.669 34.8409 111.388 32.0369 111.388 29.1733C111.388 28.3381 111.123 27.5327 110.595 26.7571C110.132 26.0412 109.405 25.6832 108.413 25.6832C107.157 25.6832 105.67 26.1307 103.951 27.0256C102.299 27.9801 101.373 28.4574 101.175 28.4574C101.043 28.4574 100.977 28.4276 100.977 28.3679C100.977 27.652 102.133 26.8764 104.447 26.0412C106.43 25.3253 107.983 24.9673 109.107 24.9673C110.694 24.9673 111.95 25.3551 112.875 26.1307C113.933 26.9062 114.461 27.9801 114.461 29.3523C114.461 32.5142 112.181 35.5866 107.62 38.5696C103.522 41.1946 99.5555 42.6562 95.7216 42.9545C95.1928 44.3864 94.9284 45.7585 94.9284 47.071C94.9284 52.0227 96.9114 54.4986 100.878 54.4986C103.918 54.4986 107.091 53.3054 110.396 50.919C113.173 48.9503 115.486 46.5639 117.337 43.7599C117.932 42.9247 118.428 42.5071 118.824 42.5071C118.89 42.5071 118.923 42.5668 118.923 42.6861C118.923 42.9247 118.659 43.4616 118.13 44.2969C116.081 47.2202 113.206 49.9048 109.504 52.3508C105.472 55.0355 101.704 56.3778 98.2004 56.3778Z" fill="#383838"/>
<path d="M117.428 56.5568C116.833 56.5568 116.536 56.169 116.536 55.3935V55.2145C116.8 54.3793 117.065 53.3352 117.329 52.0824C117.66 50.8295 118.023 49.3679 118.42 47.6974C118.816 46.027 119.312 43.9389 119.907 41.4332C120.502 38.8679 121.229 35.9148 122.089 32.5739C122.022 32.4545 121.89 32.1861 121.692 31.7685C121.56 31.2912 121.328 30.6946 120.998 29.9787C120.667 29.2031 120.403 28.6364 120.205 28.2784C120.006 27.9205 119.907 27.7415 119.907 27.7415C119.907 27.3239 120.469 26.9361 121.593 26.5781C124.898 25.4446 127.013 24.8778 127.939 24.8778C128.93 24.8778 129.426 25.1463 129.426 25.6832C129.36 25.5043 127.674 29.3224 124.369 37.1378V37.9432C124.369 39.6136 124.072 40.4489 123.477 40.4489C123.411 40.4489 123.311 40.3594 123.179 40.1804C122.65 41.6719 122.122 43.1037 121.593 44.4758C121.13 45.7883 120.7 47.1008 120.304 48.4133C121.758 46.2656 123.245 44.2074 124.766 42.2386C126.352 40.2699 127.972 38.4205 129.624 36.6903C134.582 31.5 138.68 28.9048 141.919 28.9048C143.439 28.9048 144.2 29.4418 144.2 30.5156C144.2 30.8736 144.1 31.321 143.902 31.858C143.307 33.8864 142.547 36.4517 141.622 39.554C140.762 42.5966 139.705 46.1463 138.449 50.2031C142.283 47.6378 145.257 44.8935 147.372 41.9702C147.703 41.6122 147.934 41.4332 148.067 41.4332C148.265 41.4332 148.364 41.5526 148.364 41.7912C148.364 41.9105 148.265 42.1193 148.067 42.4176C145.158 47.071 141.622 50.7699 137.457 53.5142C137.193 53.8722 136.763 54.0511 136.168 54.0511C135.706 54.0511 135.474 53.8125 135.474 53.3352C135.474 53.2159 135.54 52.679 135.672 51.7244C135.871 50.7102 136.168 49.3082 136.565 47.5185C136.895 46.206 137.193 44.9233 137.457 43.6705C137.722 42.4176 137.986 41.1349 138.25 39.8224C138.581 38.331 138.779 36.9588 138.845 35.706C138.978 34.3935 139.077 33.2003 139.143 32.1264C137.689 32.723 136.102 33.7074 134.383 35.0795C132.731 36.392 130.88 38.0625 128.831 40.0909C125.063 43.8494 122.353 47.1307 120.7 49.9347C119.775 51.5455 119.081 53.2756 118.618 55.125C118.354 56.0795 117.957 56.5568 117.428 56.5568ZM122.683 30.1577L123.576 27.2045C123.245 27.4432 122.617 27.7415 121.692 28.0994C121.89 28.4574 122.055 28.8153 122.188 29.1733C122.386 29.5312 122.551 29.8594 122.683 30.1577Z" fill="#383838"/>
<path d="M159.18 56.8253C155.875 56.8253 154.223 55.0057 154.223 51.3665C154.223 48.7415 154.95 45.4901 156.404 41.6122C156.14 40.8366 155.677 40.1506 155.016 39.554C154.355 38.8977 153.495 38.3608 152.438 37.9432C151.578 37.5852 150.686 37.2571 149.761 36.9588C148.901 36.6605 148.009 36.3324 147.084 35.9744C146.224 35.6165 145.795 34.9901 145.795 34.0952C145.795 33.1406 146.257 32.5739 147.183 32.3949H149.86C153.363 32.3949 157.032 32.0369 160.866 31.321L160.965 31.142L167.509 18.0767C167.84 17.4205 168.236 16.5852 168.699 15.571C169.162 14.5568 169.723 13.3935 170.384 12.081C170.913 11.0071 172.202 10.4702 174.251 10.4702C175.64 10.4702 176.334 10.7685 176.334 11.3651C176.334 11.544 175.111 14.0497 172.665 18.8821C170.153 23.8935 168.765 26.5185 168.501 26.7571C168.368 26.8764 168.137 27.0852 167.807 27.3835C167.542 27.6222 167.212 27.8906 166.815 28.1889C166.551 28.6065 166.154 29.3224 165.625 30.3366C166.617 30.0383 168.302 29.5312 170.682 28.8153C173.128 28.0398 176.268 27.0554 180.101 25.8622C180.366 25.8026 180.597 25.7727 180.796 25.7727C180.994 25.7131 181.126 25.6832 181.192 25.6832C181.457 25.6832 181.589 25.7429 181.589 25.8622C181.589 26.8764 176.003 28.8153 164.832 31.679C163.51 34.0057 162.386 36.0043 161.461 37.6747C160.535 39.2855 159.841 40.598 159.379 41.6122C158.519 43.5213 157.858 45.3707 157.395 47.1605C156.999 48.8906 156.801 50.5909 156.801 52.2614C156.801 54.2301 157.528 55.2145 158.982 55.2145C160.767 55.2145 163.113 54.081 166.022 51.8139C167.542 50.6207 168.666 49.7557 169.393 49.2188C170.12 48.6222 170.484 48.3239 170.484 48.3239C170.682 48.3239 170.781 48.4133 170.781 48.5923C170.781 48.7713 170.682 49.0398 170.484 49.3977C169.426 50.8295 167.74 52.3508 165.427 53.9616C162.717 55.8707 160.634 56.8253 159.18 56.8253ZM156.801 40.3594C157.263 39.1662 157.759 37.9432 158.288 36.6903C158.883 35.4375 159.511 34.1548 160.172 32.8423C158.519 33.2003 156.834 33.5284 155.115 33.8267C153.462 34.125 151.81 34.3935 150.157 34.6321C153.595 36.2429 155.809 38.152 156.801 40.3594Z" fill="#383838"/>
<path d="M183.35 55.7514C180.243 55.7514 177.434 54.5881 174.922 52.2614C172.477 49.875 171.254 47.2798 171.254 44.4758C171.254 42.6264 171.782 41.7017 172.84 41.7017C173.501 41.7017 174.162 42.1491 174.823 43.044C176.806 38.8679 179.616 34.1548 183.251 28.9048C185.565 25.6832 188.275 24.0724 191.382 24.0724C192.043 24.0724 192.803 24.2812 193.662 24.6989C194.588 25.1761 195.05 25.6832 195.05 26.2202C195.05 26.6378 194.621 26.8466 193.761 26.8466C193.695 26.8466 193.596 26.8466 193.464 26.8466C193.332 26.8466 193.166 26.8168 192.968 26.7571H192.175C190.655 26.7571 189.366 27.1449 188.308 27.9205C187.184 28.7557 186.622 29.7997 186.622 31.0526C186.622 31.5298 186.721 32.0369 186.92 32.5739C187.316 33.767 187.713 34.9602 188.11 36.1534C188.506 37.3466 188.903 38.5398 189.299 39.733C189.762 41.1648 190.093 42.5071 190.291 43.7599C190.555 44.9531 190.688 46.0568 190.688 47.071C192.472 46.8324 193.993 46.2358 195.249 45.2812C196.042 44.6847 197.099 43.4915 198.422 41.7017C198.62 41.4631 198.818 41.3437 199.016 41.3437C199.215 41.3437 199.314 41.4631 199.314 41.7017C199.314 41.9403 199.248 42.1491 199.116 42.3281C196.868 45.7287 194.092 47.7273 190.787 48.3239C190.588 50.4119 189.894 52.142 188.705 53.5142C187.449 55.0057 185.664 55.7514 183.35 55.7514ZM186.622 48.2344C186.688 47.9957 186.721 47.7869 186.721 47.608C186.721 47.429 186.721 47.2202 186.721 46.9815C186.721 46.206 186.556 45.1619 186.226 43.8494C185.961 42.4773 185.565 40.8068 185.036 38.8381C184.044 35.0795 183.681 32.5739 183.945 31.321C182.227 32.9318 179.417 37.2273 175.517 44.2074C176.773 44.804 177.831 45.3409 178.69 45.8182C179.616 46.2358 180.343 46.5639 180.871 46.8026C182.855 47.6378 184.771 48.1151 186.622 48.2344ZM181.268 52.7983C183.912 52.7983 185.664 51.6349 186.523 49.3082C181.235 49.3082 177.203 48.3239 174.427 46.3551C174.559 47.7273 175.352 49.1293 176.806 50.5611C178.26 52.0526 179.748 52.7983 181.268 52.7983Z" fill="#383838"/>
</svg>
