<svg width="200" height="200" viewBox="0 0 200 200" fill="none" xmlns="http://www.w3.org/2000/svg">
<g clip-path="url(#clip0_523_5907)">
<circle cx="100" cy="100" r="100" fill="#A4A4A4"/>
<path d="M83.379 161.74C71.739 161.74 62.079 159.46 54.399 154.9C44.799 149.38 39.999 141.28 39.999 130.6C39.999 120.28 43.899 111.76 51.699 105.04C59.379 98.44 68.319 95.14 78.519 95.14C84.159 95.14 86.979 95.62 86.979 96.58C86.979 96.82 84.879 96.94 80.679 96.94C71.199 96.94 62.919 99.82 55.839 105.58C48.279 111.46 44.499 119.44 44.499 129.52C44.499 139.24 47.979 146.86 54.939 152.38C61.659 157.78 69.819 160.48 79.419 160.48C88.299 160.48 98.019 158.32 108.579 154C126.459 146.8 135.399 135.58 135.399 120.34C135.399 116.02 134.379 111.94 132.339 108.1C130.299 104.14 127.179 100.66 122.979 97.66C119.259 94.9 115.479 92.44 111.639 90.28C107.919 88 104.139 85.54 100.299 82.9C96.219 80.14 93.159 77.02 91.119 73.54C89.079 70.06 88.059 66.46 88.059 62.74C88.059 57.46 90.039 52.66 93.999 48.34C90.399 48.7 87.339 50.44 84.819 53.56C82.419 56.92 81.219 60.4 81.219 64C81.219 67.96 82.179 71.74 84.099 75.34C86.019 78.94 88.959 82.24 92.919 85.24C96.399 87.88 99.939 90.46 103.539 92.98C107.259 95.38 110.919 97.78 114.519 100.18C122.199 106.42 126.039 113.92 126.039 122.68C126.039 131.08 121.719 139 113.079 146.44C108.999 150.04 104.799 152.68 100.479 154.36C96.159 156.16 91.899 157.06 87.699 157.06C87.099 157.06 86.799 156.88 86.799 156.52C86.799 155.8 87.219 155.44 88.059 155.44C90.099 155.2 91.899 154.9 93.459 154.54C95.019 154.18 96.399 153.82 97.599 153.46C104.079 150.82 109.779 146.8 114.699 141.4C120.099 135.28 122.799 129.04 122.799 122.68C122.799 118.48 121.839 114.52 119.919 110.8C118.119 107.08 115.299 103.78 111.459 100.9C108.099 98.26 104.619 95.8 101.019 93.52C97.419 91.24 93.879 88.78 90.399 86.14C86.439 83.26 83.499 79.96 81.579 76.24C79.779 72.4 78.879 68.38 78.879 64.18C78.879 59.74 80.379 55.84 83.379 52.48C84.939 50.8 86.679 49.54 88.599 48.7C90.519 47.74 92.619 47.26 94.899 47.26H95.079C103.599 39.1 114.939 35.02 129.099 35.02C141.819 35.02 150.519 37.96 155.199 43.84C156.639 45.64 157.359 47.56 157.359 49.6C157.359 53.56 154.839 56.44 149.799 58.24C146.199 59.68 142.059 60.4 137.379 60.4C135.099 60.4 132.699 60.28 130.179 60.04C127.659 59.68 125.019 59.14 122.259 58.42C119.019 57.82 116.259 57.04 113.979 56.08C111.699 55 109.779 53.92 108.219 52.84C107.979 52.6 107.859 52.42 107.859 52.3C107.859 51.94 108.039 51.76 108.399 51.76C108.639 51.76 108.819 51.82 108.939 51.94C115.659 56.26 124.959 58.42 136.839 58.42C138.879 58.42 140.739 58.24 142.419 57.88C144.099 57.52 145.659 57.1 147.099 56.62C151.059 54.82 153.039 52.42 153.039 49.42C153.039 45.1 149.919 41.86 143.679 39.7C138.999 38.02 134.139 37.18 129.099 37.18C114.219 37.18 103.959 42.1 98.319 51.94C96.639 54.94 95.799 58.06 95.799 61.3C95.799 68.62 99.879 75.04 108.039 80.56C111.759 82.96 115.479 85.36 119.199 87.76C123.039 90.16 126.819 92.56 130.539 94.96C138.699 101.68 142.779 109.9 142.779 119.62C142.779 132.82 135.939 143.5 122.259 151.66C110.619 158.38 97.659 161.74 83.379 161.74Z" fill="black"/>
</g>
<defs>
<clipPath id="clip0_523_5907">
<rect width="200" height="200" fill="white"/>
</clipPath>
</defs>
</svg>
