<svg width="200" height="200" viewBox="0 0 200 200" fill="none" xmlns="http://www.w3.org/2000/svg">
<rect width="200" height="200" fill="white"/>
<rect width="200" height="200" fill="#C4C4C4"/>
<path d="M113.338 114.196C111.173 118.836 108.196 122.587 104.406 125.448C100.617 128.309 95.6289 129.74 89.4422 129.74C86.3489 129.74 83.0622 129.16 79.5822 128C76.1795 126.763 73.0089 124.52 70.0702 121.272C67.1315 118.024 64.6955 113.577 62.7622 107.932C60.8289 102.287 59.8622 95.056 59.8622 86.24C59.8622 77.5787 60.7902 70.4253 62.6462 64.78C64.5022 59.1347 66.8609 54.688 69.7222 51.44C72.6609 48.192 75.8702 45.9493 79.3502 44.712C82.8302 43.3973 86.2329 42.74 89.5582 42.74C92.5742 42.74 95.2809 43.1267 97.6782 43.9C100.153 44.6733 102.318 45.7173 104.174 47.032C106.03 48.2693 107.616 49.7387 108.93 51.44C110.322 53.1413 111.444 54.92 112.294 56.776L103.594 60.14C102.357 56.9693 100.617 54.572 98.3742 52.948C96.2089 51.324 93.2702 50.512 89.5582 50.512C86.9289 50.512 84.4155 51.092 82.0182 52.252C79.6982 53.3347 77.6489 55.268 75.8702 58.052C74.0915 60.7587 72.6609 64.3933 71.5782 68.956C70.5729 73.5187 70.0702 79.28 70.0702 86.24C70.0702 93.1227 70.6115 98.8453 71.6942 103.408C72.7769 107.971 74.2075 111.605 75.9862 114.312C77.8422 117.019 79.9302 118.952 82.2502 120.112C84.6475 121.272 87.1222 121.852 89.6742 121.852C93.9275 121.852 97.1755 120.808 99.4182 118.72C101.661 116.555 103.478 113.848 104.87 110.6L113.338 114.196Z" fill="white"/>
<g style="mix-blend-mode:darken" filter="url(#filter0_d_514_5907)">
<path d="M104.465 160.718C96.3173 160.718 89.5553 159.122 84.1793 155.93C77.4593 152.066 74.0993 146.396 74.0993 138.92C74.0993 131.696 76.8293 125.732 82.2893 121.028C87.6653 116.408 93.9233 114.098 101.063 114.098C105.011 114.098 106.985 114.434 106.985 115.106C106.985 115.274 105.515 115.358 102.575 115.358C95.9393 115.358 90.1433 117.374 85.1873 121.406C79.8953 125.522 77.2493 131.108 77.2493 138.164C77.2493 144.968 79.6853 150.302 84.5573 154.166C89.2613 157.946 94.9733 159.836 101.693 159.836C107.909 159.836 114.713 158.324 122.105 155.3C134.621 150.26 140.879 142.406 140.879 131.738C140.879 128.714 140.165 125.858 138.737 123.17C137.309 120.398 135.125 117.962 132.185 115.862C129.581 113.93 126.935 112.208 124.247 110.696C121.643 109.1 118.997 107.378 116.309 105.53C113.453 103.598 111.311 101.414 109.883 98.978C108.455 96.542 107.741 94.022 107.741 91.418C107.741 87.722 109.127 84.362 111.899 81.338C109.379 81.59 107.237 82.808 105.473 84.992C103.793 87.344 102.953 89.78 102.953 92.3C102.953 95.072 103.625 97.718 104.969 100.238C106.313 102.758 108.371 105.068 111.143 107.168C113.579 109.016 116.057 110.822 118.577 112.586C121.181 114.266 123.743 115.946 126.263 117.626C131.639 121.994 134.327 127.244 134.327 133.376C134.327 139.256 131.303 144.8 125.255 150.008C122.399 152.528 119.459 154.376 116.435 155.552C113.411 156.812 110.429 157.442 107.489 157.442C107.069 157.442 106.859 157.316 106.859 157.064C106.859 156.56 107.153 156.308 107.741 156.308C109.169 156.14 110.429 155.93 111.521 155.678C112.613 155.426 113.579 155.174 114.419 154.922C118.955 153.074 122.945 150.26 126.389 146.48C130.169 142.196 132.059 137.828 132.059 133.376C132.059 130.436 131.387 127.664 130.043 125.06C128.783 122.456 126.809 120.146 124.121 118.13C121.769 116.282 119.333 114.56 116.813 112.964C114.293 111.368 111.815 109.646 109.379 107.798C106.607 105.782 104.549 103.472 103.205 100.868C101.945 98.18 101.315 95.366 101.315 92.426C101.315 89.318 102.365 86.588 104.465 84.236C105.557 83.06 106.775 82.178 108.119 81.59C109.463 80.918 110.933 80.582 112.529 80.582H112.655C118.619 74.87 126.557 72.014 136.469 72.014C145.373 72.014 151.463 74.072 154.739 78.188C155.747 79.448 156.251 80.792 156.251 82.22C156.251 84.992 154.487 87.008 150.959 88.268C148.439 89.276 145.541 89.78 142.265 89.78C140.669 89.78 138.989 89.696 137.225 89.528C135.461 89.276 133.613 88.898 131.681 88.394C129.413 87.974 127.481 87.428 125.885 86.756C124.289 86 122.945 85.244 121.853 84.488C121.685 84.32 121.601 84.194 121.601 84.11C121.601 83.858 121.727 83.732 121.979 83.732C122.147 83.732 122.273 83.774 122.357 83.858C127.061 86.882 133.571 88.394 141.887 88.394C143.315 88.394 144.617 88.268 145.793 88.016C146.969 87.764 148.061 87.47 149.069 87.134C151.841 85.874 153.227 84.194 153.227 82.094C153.227 79.07 151.043 76.802 146.675 75.29C143.399 74.114 139.997 73.526 136.469 73.526C126.053 73.526 118.871 76.97 114.923 83.858C113.747 85.958 113.159 88.142 113.159 90.41C113.159 95.534 116.015 100.028 121.727 103.892C124.331 105.572 126.935 107.252 129.539 108.932C132.227 110.612 134.873 112.292 137.477 113.972C143.189 118.676 146.045 124.43 146.045 131.234C146.045 140.474 141.257 147.95 131.681 153.662C123.533 158.366 114.461 160.718 104.465 160.718Z" fill="#383838"/>
</g>
<defs>
<filter id="filter0_d_514_5907" x="70.0993" y="72.0142" width="90.152" height="96.7036" filterUnits="userSpaceOnUse" color-interpolation-filters="sRGB">
<feFlood flood-opacity="0" result="BackgroundImageFix"/>
<feColorMatrix in="SourceAlpha" type="matrix" values="0 0 0 0 0 0 0 0 0 0 0 0 0 0 0 0 0 0 127 0" result="hardAlpha"/>
<feOffset dy="4"/>
<feGaussianBlur stdDeviation="2"/>
<feComposite in2="hardAlpha" operator="out"/>
<feColorMatrix type="matrix" values="0 0 0 0 0 0 0 0 0 0 0 0 0 0 0 0 0 0 0.25 0"/>
<feBlend mode="normal" in2="BackgroundImageFix" result="effect1_dropShadow_514_5907"/>
<feBlend mode="normal" in="SourceGraphic" in2="effect1_dropShadow_514_5907" result="shape"/>
</filter>
</defs>
</svg>
